<svg width="109" height="24" viewBox="0 0 109 24" fill="none" xmlns="http://www.w3.org/2000/svg">
<path d="M10.9059 4.69409V1.69409H1.44707V22.3059H10.9059V19.3059C8.96824 19.3059 7.10994 18.5361 5.73985 17.166C4.36973 15.7959 3.60001 13.9376 3.60001 12C3.60001 10.0623 4.36973 8.20403 5.73985 6.83394C7.10994 5.46382 8.96824 4.69409 10.9059 4.69409Z" fill="#101010"/>
<path d="M10.9059 4.69409V19.3059C12.8435 19.3059 14.7018 18.5361 16.072 17.166C17.4421 15.7959 18.2118 13.9376 18.2118 12C18.2118 10.0623 17.4421 8.20403 16.072 6.83394C14.7018 5.46382 12.8435 4.69409 10.9059 4.69409Z" fill="#101010"/>
<path d="M31.6447 17.724C30.8514 17.724 30.1187 17.6027 29.4467 17.36C28.784 17.108 28.2054 16.7533 27.7107 16.296C27.2254 15.8387 26.8474 15.2973 26.5767 14.672C26.306 14.0467 26.1707 13.356 26.1707 12.6C26.1707 11.844 26.306 11.1533 26.5767 10.528C26.8474 9.90267 27.23 9.36133 27.7247 8.904C28.2194 8.44667 28.8027 8.09667 29.4747 7.854C30.156 7.602 30.9027 7.476 31.7147 7.476C32.6854 7.476 33.5487 7.63933 34.3047 7.966C35.07 8.29267 35.7 8.75933 36.1947 9.366L34.0807 11.228C33.7727 10.8733 33.4367 10.6073 33.0727 10.43C32.718 10.2433 32.3214 10.15 31.8827 10.15C31.5187 10.15 31.1874 10.206 30.8887 10.318C30.5994 10.43 30.352 10.5933 30.1467 10.808C29.9414 11.0227 29.7827 11.2793 29.6707 11.578C29.5587 11.8767 29.5027 12.2173 29.5027 12.6C29.5027 12.964 29.5587 13.3 29.6707 13.608C29.7827 13.9067 29.9414 14.1633 30.1467 14.378C30.352 14.5927 30.5947 14.7607 30.8747 14.882C31.164 14.994 31.486 15.05 31.8407 15.05C32.214 15.05 32.578 14.9893 32.9327 14.868C33.2874 14.7373 33.6654 14.518 34.0667 14.21L35.9147 16.478C35.3174 16.8793 34.636 17.1873 33.8707 17.402C33.1054 17.6167 32.3634 17.724 31.6447 17.724ZM33.0447 16.058V12.334H35.9147V16.478L33.0447 16.058ZM40.3465 11.34H44.7145V13.72H40.3465V11.34ZM40.5705 15.008H45.4705V17.5H37.3225V7.7H45.2885V10.192H40.5705V15.008ZM49.7664 11.34H54.1344V13.72H49.7664V11.34ZM49.9904 15.008H54.8904V17.5H46.7424V7.7H54.7084V10.192H49.9904V15.008ZM59.1163 15.4L58.9343 11.774L62.6303 7.7H66.2283L62.0843 12.264L60.2503 14.14L59.1163 15.4ZM56.1623 17.5V7.7H59.4103V17.5H56.1623ZM62.6023 17.5L59.7183 13.692L61.8603 11.424L66.4243 17.5H62.6023ZM66.8674 17.5V7.7H72.1034C73.4567 7.7 74.4554 7.94267 75.0994 8.428C75.7434 8.904 76.0654 9.51533 76.0654 10.262C76.0654 10.7567 75.9254 11.2 75.6454 11.592C75.3747 11.9747 74.9781 12.278 74.4554 12.502C73.9327 12.726 73.2887 12.838 72.5234 12.838L72.8034 12.082C73.5687 12.082 74.2267 12.1893 74.7774 12.404C75.3374 12.6187 75.7667 12.9313 76.0654 13.342C76.3734 13.7433 76.5274 14.2287 76.5274 14.798C76.5274 15.6473 76.1727 16.31 75.4634 16.786C74.7634 17.262 73.7367 17.5 72.3834 17.5H66.8674ZM70.1154 15.19H72.1034C72.4674 15.19 72.7381 15.1247 72.9154 14.994C73.1021 14.8633 73.1954 14.672 73.1954 14.42C73.1954 14.168 73.1021 13.9767 72.9154 13.846C72.7381 13.7153 72.4674 13.65 72.1034 13.65H69.8914V11.466H71.6554C72.0287 11.466 72.2994 11.4053 72.4674 11.284C72.6447 11.1533 72.7334 10.9713 72.7334 10.738C72.7334 10.4953 72.6447 10.3133 72.4674 10.192C72.2994 10.0707 72.0287 10.01 71.6554 10.01H70.1154V15.19ZM77.6955 17.5V7.7H80.9995V14.938H85.4235V17.5H77.6955ZM91.3374 17.724C90.5441 17.724 89.8068 17.598 89.1254 17.346C88.4534 17.094 87.8701 16.7393 87.3754 16.282C86.8808 15.8153 86.4934 15.2693 86.2134 14.644C85.9428 14.0187 85.8074 13.3373 85.8074 12.6C85.8074 11.8533 85.9428 11.172 86.2134 10.556C86.4934 9.93067 86.8808 9.38933 87.3754 8.932C87.8701 8.46533 88.4534 8.106 89.1254 7.854C89.8068 7.602 90.5441 7.476 91.3374 7.476C92.1401 7.476 92.8774 7.602 93.5494 7.854C94.2214 8.106 94.8048 8.46533 95.2994 8.932C95.7941 9.38933 96.1768 9.93067 96.4474 10.556C96.7274 11.172 96.8674 11.8533 96.8674 12.6C96.8674 13.3373 96.7274 14.0187 96.4474 14.644C96.1768 15.2693 95.7941 15.8153 95.2994 16.282C94.8048 16.7393 94.2214 17.094 93.5494 17.346C92.8774 17.598 92.1401 17.724 91.3374 17.724ZM91.3374 15.05C91.6454 15.05 91.9301 14.994 92.1914 14.882C92.4621 14.77 92.6954 14.6113 92.8914 14.406C93.0968 14.1913 93.2554 13.9347 93.3674 13.636C93.4794 13.328 93.5354 12.9827 93.5354 12.6C93.5354 12.2173 93.4794 11.8767 93.3674 11.578C93.2554 11.27 93.0968 11.0133 92.8914 10.808C92.6954 10.5933 92.4621 10.43 92.1914 10.318C91.9301 10.206 91.6454 10.15 91.3374 10.15C91.0294 10.15 90.7401 10.206 90.4694 10.318C90.2081 10.43 89.9748 10.5933 89.7694 10.808C89.5734 11.0133 89.4194 11.27 89.3074 11.578C89.1954 11.8767 89.1394 12.2173 89.1394 12.6C89.1394 12.9827 89.1954 13.328 89.3074 13.636C89.4194 13.9347 89.5734 14.1913 89.7694 14.406C89.9748 14.6113 90.2081 14.77 90.4694 14.882C90.7401 14.994 91.0294 15.05 91.3374 15.05ZM103.149 17.724C102.355 17.724 101.623 17.6027 100.951 17.36C100.288 17.108 99.7093 16.7533 99.2146 16.296C98.7293 15.8387 98.3513 15.2973 98.0806 14.672C97.8099 14.0467 97.6746 13.356 97.6746 12.6C97.6746 11.844 97.8099 11.1533 98.0806 10.528C98.3513 9.90267 98.7339 9.36133 99.2286 8.904C99.7233 8.44667 100.307 8.09667 100.979 7.854C101.66 7.602 102.407 7.476 103.219 7.476C104.189 7.476 105.053 7.63933 105.809 7.966C106.574 8.29267 107.204 8.75933 107.699 9.366L105.585 11.228C105.277 10.8733 104.941 10.6073 104.577 10.43C104.222 10.2433 103.825 10.15 103.387 10.15C103.023 10.15 102.691 10.206 102.393 10.318C102.103 10.43 101.856 10.5933 101.651 10.808C101.445 11.0227 101.287 11.2793 101.175 11.578C101.063 11.8767 101.007 12.2173 101.007 12.6C101.007 12.964 101.063 13.3 101.175 13.608C101.287 13.9067 101.445 14.1633 101.651 14.378C101.856 14.5927 102.099 14.7607 102.379 14.882C102.668 14.994 102.99 15.05 103.345 15.05C103.718 15.05 104.082 14.9893 104.437 14.868C104.791 14.7373 105.169 14.518 105.571 14.21L107.419 16.478C106.821 16.8793 106.14 17.1873 105.375 17.402C104.609 17.6167 103.867 17.724 103.149 17.724ZM104.549 16.058V12.334H107.419V16.478L104.549 16.058Z" fill="#101010"/>
</svg>
